<mxfile host="app.diagrams.net" agent="Mozilla/5.0 (Windows NT 10.0; Win64; x64) AppleWebKit/537.36 (KHTML, like Gecko) Chrome/135.0.0.0 Safari/537.36 Edg/135.0.0.0" version="26.2.8">
  <diagram name="Pagina-1" id="fYTfs4sDM6bufokIppUH">
    <mxGraphModel dx="1175" dy="205" grid="1" gridSize="10" guides="1" tooltips="1" connect="1" arrows="1" fold="1" page="1" pageScale="1" pageWidth="827" pageHeight="1169" math="0" shadow="0">
      <root>
        <mxCell id="0" />
        <mxCell id="1" parent="0" />
        <mxCell id="7ggBEAi3PEVED5c9oeLr-35" style="edgeStyle=none;rounded=0;orthogonalLoop=1;jettySize=auto;html=1;strokeColor=default;align=center;verticalAlign=middle;fontFamily=Helvetica;fontSize=11;fontColor=default;labelBackgroundColor=default;endArrow=classic;" parent="1" source="7ggBEAi3PEVED5c9oeLr-2" target="7ggBEAi3PEVED5c9oeLr-34" edge="1">
          <mxGeometry relative="1" as="geometry" />
        </mxCell>
        <mxCell id="SbrLvL1oog02M2zgo0Gh-2" style="rounded=0;orthogonalLoop=1;jettySize=auto;html=1;" edge="1" parent="1" source="7ggBEAi3PEVED5c9oeLr-2" target="SbrLvL1oog02M2zgo0Gh-1">
          <mxGeometry relative="1" as="geometry" />
        </mxCell>
        <mxCell id="SbrLvL1oog02M2zgo0Gh-3" value="pull layer" style="edgeLabel;html=1;align=center;verticalAlign=middle;resizable=0;points=[];" vertex="1" connectable="0" parent="SbrLvL1oog02M2zgo0Gh-2">
          <mxGeometry x="-0.009" relative="1" as="geometry">
            <mxPoint as="offset" />
          </mxGeometry>
        </mxCell>
        <mxCell id="7ggBEAi3PEVED5c9oeLr-2" value="Bot" style="sketch=0;outlineConnect=0;fontColor=#232F3E;gradientColor=none;strokeColor=#ffffff;fillColor=#232F3E;dashed=0;verticalLabelPosition=middle;verticalAlign=bottom;align=center;html=1;whiteSpace=wrap;fontSize=10;fontStyle=1;spacing=3;shape=mxgraph.aws4.productIcon;prIcon=mxgraph.aws4.lambda;" parent="1" vertex="1">
          <mxGeometry x="710" y="249" width="80" height="100" as="geometry" />
        </mxCell>
        <mxCell id="7ggBEAi3PEVED5c9oeLr-4" style="rounded=0;orthogonalLoop=1;jettySize=auto;html=1;" parent="1" source="7ggBEAi3PEVED5c9oeLr-3" target="7ggBEAi3PEVED5c9oeLr-2" edge="1">
          <mxGeometry relative="1" as="geometry" />
        </mxCell>
        <mxCell id="7ggBEAi3PEVED5c9oeLr-13" value="Headers { X-Telegram-Bot-Api-Secret-Token, AuthorizationSecret }" style="edgeLabel;html=1;align=center;verticalAlign=middle;resizable=0;points=[];fontFamily=Helvetica;fontSize=11;fontColor=default;labelBackgroundColor=default;" parent="7ggBEAi3PEVED5c9oeLr-4" vertex="1" connectable="0">
          <mxGeometry x="-0.2626" relative="1" as="geometry">
            <mxPoint x="47" as="offset" />
          </mxGeometry>
        </mxCell>
        <mxCell id="7ggBEAi3PEVED5c9oeLr-9" style="edgeStyle=none;rounded=0;orthogonalLoop=1;jettySize=auto;html=1;strokeColor=default;align=center;verticalAlign=middle;fontFamily=Helvetica;fontSize=11;fontColor=default;labelBackgroundColor=default;endArrow=classic;startArrow=classic;startFill=1;" parent="1" source="7ggBEAi3PEVED5c9oeLr-3" target="7ggBEAi3PEVED5c9oeLr-8" edge="1">
          <mxGeometry relative="1" as="geometry" />
        </mxCell>
        <mxCell id="7ggBEAi3PEVED5c9oeLr-10" value="Header { X-Telegram-Bot-Api-Secret-Token }" style="edgeLabel;html=1;align=center;verticalAlign=middle;resizable=0;points=[];fontFamily=Helvetica;fontSize=11;fontColor=default;labelBackgroundColor=default;" parent="7ggBEAi3PEVED5c9oeLr-9" vertex="1" connectable="0">
          <mxGeometry x="0.075" y="-5" relative="1" as="geometry">
            <mxPoint as="offset" />
          </mxGeometry>
        </mxCell>
        <mxCell id="7ggBEAi3PEVED5c9oeLr-12" style="edgeStyle=none;rounded=0;orthogonalLoop=1;jettySize=auto;html=1;strokeColor=default;align=center;verticalAlign=middle;fontFamily=Helvetica;fontSize=11;fontColor=default;labelBackgroundColor=default;endArrow=classic;dashed=1;" parent="1" source="7ggBEAi3PEVED5c9oeLr-3" target="7ggBEAi3PEVED5c9oeLr-11" edge="1">
          <mxGeometry relative="1" as="geometry" />
        </mxCell>
        <mxCell id="7ggBEAi3PEVED5c9oeLr-3" value="Webhook &lt;br&gt;Api GW" style="sketch=0;points=[[0,0,0],[0.25,0,0],[0.5,0,0],[0.75,0,0],[1,0,0],[0,1,0],[0.25,1,0],[0.5,1,0],[0.75,1,0],[1,1,0],[0,0.25,0],[0,0.5,0],[0,0.75,0],[1,0.25,0],[1,0.5,0],[1,0.75,0]];outlineConnect=0;fontColor=#232F3E;fillColor=#E7157B;strokeColor=#ffffff;dashed=0;verticalLabelPosition=bottom;verticalAlign=top;align=center;html=1;fontSize=12;fontStyle=0;aspect=fixed;shape=mxgraph.aws4.resourceIcon;resIcon=mxgraph.aws4.api_gateway;" parent="1" vertex="1">
          <mxGeometry x="240" y="260" width="78" height="78" as="geometry" />
        </mxCell>
        <mxCell id="7ggBEAi3PEVED5c9oeLr-6" style="edgeStyle=none;rounded=0;orthogonalLoop=1;jettySize=auto;html=1;strokeColor=default;align=center;verticalAlign=middle;fontFamily=Helvetica;fontSize=11;fontColor=default;labelBackgroundColor=default;endArrow=classic;startArrow=classic;startFill=1;" parent="1" source="7ggBEAi3PEVED5c9oeLr-5" target="7ggBEAi3PEVED5c9oeLr-3" edge="1">
          <mxGeometry relative="1" as="geometry" />
        </mxCell>
        <mxCell id="7ggBEAi3PEVED5c9oeLr-7" value="Headers { X-Telegram-Bot-Api-Secret-Token }" style="edgeLabel;html=1;align=center;verticalAlign=middle;resizable=0;points=[];fontFamily=Helvetica;fontSize=11;fontColor=default;labelBackgroundColor=default;" parent="7ggBEAi3PEVED5c9oeLr-6" vertex="1" connectable="0">
          <mxGeometry x="-0.3086" y="-1" relative="1" as="geometry">
            <mxPoint x="63" y="-1" as="offset" />
          </mxGeometry>
        </mxCell>
        <mxCell id="7ggBEAi3PEVED5c9oeLr-5" value="Telegram&amp;nbsp;Servers" style="shape=image;html=1;verticalAlign=top;verticalLabelPosition=bottom;labelBackgroundColor=#ffffff;imageAspect=0;aspect=fixed;image=https://cdn1.iconfinder.com/data/icons/unicons-line-vol-6/24/telegram-128.png;fontFamily=Helvetica;fontSize=11;fontColor=default;" parent="1" vertex="1">
          <mxGeometry x="-340" y="235" width="128" height="128" as="geometry" />
        </mxCell>
        <mxCell id="7ggBEAi3PEVED5c9oeLr-8" value="Authorizer" style="sketch=0;outlineConnect=0;fontColor=#232F3E;gradientColor=none;strokeColor=#ffffff;fillColor=#232F3E;dashed=0;verticalLabelPosition=middle;verticalAlign=bottom;align=center;html=1;whiteSpace=wrap;fontSize=10;fontStyle=1;spacing=3;shape=mxgraph.aws4.productIcon;prIcon=mxgraph.aws4.lambda;" parent="1" vertex="1">
          <mxGeometry x="440" y="460" width="80" height="100" as="geometry" />
        </mxCell>
        <mxCell id="7ggBEAi3PEVED5c9oeLr-11" value="CloudWatch" style="sketch=0;points=[[0,0,0],[0.25,0,0],[0.5,0,0],[0.75,0,0],[1,0,0],[0,1,0],[0.25,1,0],[0.5,1,0],[0.75,1,0],[1,1,0],[0,0.25,0],[0,0.5,0],[0,0.75,0],[1,0.25,0],[1,0.5,0],[1,0.75,0]];points=[[0,0,0],[0.25,0,0],[0.5,0,0],[0.75,0,0],[1,0,0],[0,1,0],[0.25,1,0],[0.5,1,0],[0.75,1,0],[1,1,0],[0,0.25,0],[0,0.5,0],[0,0.75,0],[1,0.25,0],[1,0.5,0],[1,0.75,0]];outlineConnect=0;fontColor=#232F3E;fillColor=#E7157B;strokeColor=#ffffff;dashed=0;verticalLabelPosition=top;verticalAlign=bottom;align=center;html=1;fontSize=12;fontStyle=0;aspect=fixed;shape=mxgraph.aws4.resourceIcon;resIcon=mxgraph.aws4.cloudwatch_2;fontFamily=Helvetica;labelBackgroundColor=default;labelPosition=center;" parent="1" vertex="1">
          <mxGeometry x="240" y="40" width="78" height="78" as="geometry" />
        </mxCell>
        <mxCell id="7ggBEAi3PEVED5c9oeLr-14" value="IAM Policy, allow only from&amp;nbsp;&lt;br&gt;subnets &lt;b&gt;149.154.160.0/20 &lt;br&gt;and&lt;/b&gt;&amp;nbsp;&lt;b&gt;91.108.4.0/22&lt;/b&gt;" style="sketch=0;outlineConnect=0;fontColor=#232F3E;gradientColor=none;fillColor=#DD344C;strokeColor=none;dashed=0;verticalLabelPosition=bottom;verticalAlign=top;align=center;html=1;fontSize=12;fontStyle=0;aspect=fixed;pointerEvents=1;shape=mxgraph.aws4.permissions;fontFamily=Helvetica;labelBackgroundColor=default;" parent="1" vertex="1">
          <mxGeometry x="-20" y="330" width="55.64" height="70" as="geometry" />
        </mxCell>
        <mxCell id="7ggBEAi3PEVED5c9oeLr-15" value="Validate the incoming &lt;b&gt;X-Telegram-Bot-Api-Secret-Token&lt;/b&gt;&lt;br&gt;by checking its presence.&lt;br&gt;&lt;b&gt;X-Telegram-Bot-Api-Secret-Token &lt;/b&gt;represents the API_KEY.&lt;div&gt;If API_KEY is present add another secret &lt;b&gt;AuthorizationSecret&lt;/b&gt;&amp;nbsp;to the request&lt;/div&gt;" style="text;html=1;align=center;verticalAlign=middle;resizable=0;points=[];autosize=1;strokeColor=none;fillColor=none;fontFamily=Helvetica;fontSize=11;fontColor=default;labelBackgroundColor=default;" parent="1" vertex="1">
          <mxGeometry x="280" y="560" width="400" height="70" as="geometry" />
        </mxCell>
        <mxCell id="7ggBEAi3PEVED5c9oeLr-16" value="Validate both &lt;b&gt;X-Telegram-Bot-Api-Secret-Token&lt;/b&gt;&lt;div&gt;and &lt;b&gt;AuthorizationSecret &lt;/b&gt;against theri values.&lt;/div&gt;&lt;div&gt;If valid it means that the request followed the right&lt;/div&gt;&lt;div&gt;flow.&lt;/div&gt;" style="text;html=1;align=center;verticalAlign=middle;resizable=0;points=[];autosize=1;strokeColor=none;fillColor=none;fontFamily=Helvetica;fontSize=11;fontColor=default;labelBackgroundColor=default;" parent="1" vertex="1">
          <mxGeometry x="800" y="249" width="270" height="70" as="geometry" />
        </mxCell>
        <mxCell id="7ggBEAi3PEVED5c9oeLr-17" value="AWS Cloud" style="points=[[0,0],[0.25,0],[0.5,0],[0.75,0],[1,0],[1,0.25],[1,0.5],[1,0.75],[1,1],[0.75,1],[0.5,1],[0.25,1],[0,1],[0,0.75],[0,0.5],[0,0.25]];outlineConnect=0;gradientColor=none;html=1;whiteSpace=wrap;fontSize=12;fontStyle=0;container=1;pointerEvents=0;collapsible=0;recursiveResize=0;shape=mxgraph.aws4.group;grIcon=mxgraph.aws4.group_aws_cloud_alt;strokeColor=#232F3E;fillColor=none;verticalAlign=top;align=left;spacingLeft=30;fontColor=#232F3E;dashed=0;fontFamily=Helvetica;labelBackgroundColor=default;" parent="1" vertex="1">
          <mxGeometry x="-140" width="1240" height="660" as="geometry" />
        </mxCell>
        <mxCell id="7ggBEAi3PEVED5c9oeLr-21" value="DynamoDB Users Table" style="outlineConnect=0;dashed=0;verticalLabelPosition=top;verticalAlign=bottom;align=center;html=1;shape=mxgraph.aws3.dynamo_db;fillColor=#2E73B8;gradientColor=none;fontFamily=Helvetica;fontSize=11;fontColor=default;labelBackgroundColor=default;labelPosition=center;" parent="7ggBEAi3PEVED5c9oeLr-17" vertex="1">
          <mxGeometry x="760" y="40" width="42" height="51" as="geometry" />
        </mxCell>
        <mxCell id="7ggBEAi3PEVED5c9oeLr-24" value="Secrets Manager" style="sketch=0;points=[[0,0,0],[0.25,0,0],[0.5,0,0],[0.75,0,0],[1,0,0],[0,1,0],[0.25,1,0],[0.5,1,0],[0.75,1,0],[1,1,0],[0,0.25,0],[0,0.5,0],[0,0.75,0],[1,0.25,0],[1,0.5,0],[1,0.75,0]];outlineConnect=0;fontColor=#232F3E;fillColor=#DD344C;strokeColor=#ffffff;dashed=0;verticalLabelPosition=top;verticalAlign=bottom;align=center;html=1;fontSize=12;fontStyle=0;aspect=fixed;shape=mxgraph.aws4.resourceIcon;resIcon=mxgraph.aws4.secrets_manager;fontFamily=Helvetica;labelBackgroundColor=default;labelPosition=center;" parent="7ggBEAi3PEVED5c9oeLr-17" vertex="1">
          <mxGeometry x="1000" y="40" width="60" height="60" as="geometry" />
        </mxCell>
        <mxCell id="7ggBEAi3PEVED5c9oeLr-27" value="2" style="ellipse;whiteSpace=wrap;html=1;fontFamily=Helvetica;fontSize=11;labelBackgroundColor=none;fillColor=#dae8fc;strokeColor=#6c8ebf;" parent="7ggBEAi3PEVED5c9oeLr-17" vertex="1">
          <mxGeometry x="927" y="201" width="20" height="20" as="geometry" />
        </mxCell>
        <mxCell id="7ggBEAi3PEVED5c9oeLr-30" value="1" style="ellipse;whiteSpace=wrap;html=1;fontFamily=Helvetica;fontSize=11;labelBackgroundColor=none;fillColor=#dae8fc;strokeColor=#6c8ebf;" parent="7ggBEAi3PEVED5c9oeLr-17" vertex="1">
          <mxGeometry x="824" y="201" width="20" height="20" as="geometry" />
        </mxCell>
        <mxCell id="SbrLvL1oog02M2zgo0Gh-5" style="rounded=0;orthogonalLoop=1;jettySize=auto;html=1;edgeStyle=orthogonalEdgeStyle;curved=1;exitX=0;exitY=0.75;exitDx=0;exitDy=0;exitPerimeter=0;" edge="1" parent="7ggBEAi3PEVED5c9oeLr-17" source="7ggBEAi3PEVED5c9oeLr-34" target="SbrLvL1oog02M2zgo0Gh-4">
          <mxGeometry relative="1" as="geometry">
            <Array as="points">
              <mxPoint x="1000" y="431" />
              <mxPoint x="1000" y="576" />
            </Array>
          </mxGeometry>
        </mxCell>
        <mxCell id="7ggBEAi3PEVED5c9oeLr-34" value="LLM Agent" style="sketch=0;points=[[0,0,0],[0.25,0,0],[0.5,0,0],[0.75,0,0],[1,0,0],[0,1,0],[0.25,1,0],[0.5,1,0],[0.75,1,0],[1,1,0],[0,0.25,0],[0,0.5,0],[0,0.75,0],[1,0.25,0],[1,0.5,0],[1,0.75,0]];outlineConnect=0;fontColor=#232F3E;fillColor=#01A88D;strokeColor=#ffffff;dashed=0;verticalLabelPosition=bottom;verticalAlign=top;align=center;html=1;fontSize=12;fontStyle=0;aspect=fixed;shape=mxgraph.aws4.resourceIcon;resIcon=mxgraph.aws4.augmented_ai;fontFamily=Helvetica;labelBackgroundColor=default;" parent="7ggBEAi3PEVED5c9oeLr-17" vertex="1">
          <mxGeometry x="1030" y="372" width="78" height="78" as="geometry" />
        </mxCell>
        <mxCell id="SbrLvL1oog02M2zgo0Gh-1" value="" style="sketch=0;points=[[0,0,0],[0.25,0,0],[0.5,0,0],[0.75,0,0],[1,0,0],[0,1,0],[0.25,1,0],[0.5,1,0],[0.75,1,0],[1,1,0],[0,0.25,0],[0,0.5,0],[0,0.75,0],[1,0.25,0],[1,0.5,0],[1,0.75,0]];outlineConnect=0;fontColor=#232F3E;fillColor=#7AA116;strokeColor=#ffffff;dashed=0;verticalLabelPosition=bottom;verticalAlign=top;align=center;html=1;fontSize=12;fontStyle=0;aspect=fixed;shape=mxgraph.aws4.resourceIcon;resIcon=mxgraph.aws4.s3;" vertex="1" parent="7ggBEAi3PEVED5c9oeLr-17">
          <mxGeometry x="794" y="450" width="30" height="30" as="geometry" />
        </mxCell>
        <mxCell id="SbrLvL1oog02M2zgo0Gh-4" value="Online Search tool" style="image;aspect=fixed;html=1;points=[];align=center;fontSize=12;image=img/lib/azure2/app_services/Search_Services.svg;" vertex="1" parent="7ggBEAi3PEVED5c9oeLr-17">
          <mxGeometry x="1040" y="533" width="72" height="52" as="geometry" />
        </mxCell>
        <mxCell id="SbrLvL1oog02M2zgo0Gh-6" style="edgeStyle=orthogonalEdgeStyle;rounded=0;orthogonalLoop=1;jettySize=auto;html=1;entryX=1;entryY=0.75;entryDx=0;entryDy=0;entryPerimeter=0;curved=1;exitX=0.986;exitY=0.508;exitDx=0;exitDy=0;exitPerimeter=0;" edge="1" parent="7ggBEAi3PEVED5c9oeLr-17" source="SbrLvL1oog02M2zgo0Gh-4" target="7ggBEAi3PEVED5c9oeLr-34">
          <mxGeometry relative="1" as="geometry" />
        </mxCell>
        <mxCell id="7ggBEAi3PEVED5c9oeLr-19" style="edgeStyle=none;rounded=0;orthogonalLoop=1;jettySize=auto;html=1;strokeColor=default;align=center;verticalAlign=middle;fontFamily=Helvetica;fontSize=11;fontColor=default;labelBackgroundColor=default;endArrow=classic;startArrow=classic;startFill=1;" parent="1" source="7ggBEAi3PEVED5c9oeLr-18" target="7ggBEAi3PEVED5c9oeLr-5" edge="1">
          <mxGeometry relative="1" as="geometry" />
        </mxCell>
        <mxCell id="7ggBEAi3PEVED5c9oeLr-18" value="User" style="sketch=0;outlineConnect=0;fontColor=#232F3E;gradientColor=none;strokeColor=#232F3E;fillColor=#ffffff;dashed=0;verticalLabelPosition=bottom;verticalAlign=top;align=center;html=1;fontSize=12;fontStyle=0;aspect=fixed;shape=mxgraph.aws4.resourceIcon;resIcon=mxgraph.aws4.user;fontFamily=Helvetica;labelBackgroundColor=default;" parent="1" vertex="1">
          <mxGeometry x="-510" y="269" width="60" height="60" as="geometry" />
        </mxCell>
        <mxCell id="7ggBEAi3PEVED5c9oeLr-20" value="When we register the bot&#39;s webhook&lt;br&gt;we can set a secret string that will be sent&lt;div&gt;in every request from Telegram through&amp;nbsp;&lt;/div&gt;&lt;div&gt;the header &lt;b&gt;X-Telegram-Bot-Api-Secret-Token&lt;/b&gt;&lt;/div&gt;" style="text;html=1;align=center;verticalAlign=middle;resizable=0;points=[];autosize=1;strokeColor=none;fillColor=none;fontFamily=Helvetica;fontSize=11;fontColor=default;labelBackgroundColor=default;" parent="1" vertex="1">
          <mxGeometry x="-401" y="160" width="250" height="70" as="geometry" />
        </mxCell>
        <mxCell id="7ggBEAi3PEVED5c9oeLr-22" style="edgeStyle=none;rounded=0;orthogonalLoop=1;jettySize=auto;html=1;strokeColor=default;align=center;verticalAlign=middle;fontFamily=Helvetica;fontSize=11;fontColor=default;labelBackgroundColor=default;endArrow=classic;" parent="1" source="7ggBEAi3PEVED5c9oeLr-2" target="7ggBEAi3PEVED5c9oeLr-21" edge="1">
          <mxGeometry relative="1" as="geometry" />
        </mxCell>
        <mxCell id="7ggBEAi3PEVED5c9oeLr-23" value="check if Telegram user&lt;br&gt;is present in the whitelist" style="edgeLabel;html=1;align=center;verticalAlign=middle;resizable=0;points=[];fontFamily=Helvetica;fontSize=11;fontColor=default;labelBackgroundColor=default;" parent="7ggBEAi3PEVED5c9oeLr-22" vertex="1" connectable="0">
          <mxGeometry x="0.2214" y="-1" relative="1" as="geometry">
            <mxPoint as="offset" />
          </mxGeometry>
        </mxCell>
        <mxCell id="7ggBEAi3PEVED5c9oeLr-25" style="edgeStyle=none;rounded=0;orthogonalLoop=1;jettySize=auto;html=1;entryX=0.5;entryY=1;entryDx=0;entryDy=0;entryPerimeter=0;strokeColor=default;align=center;verticalAlign=middle;fontFamily=Helvetica;fontSize=11;fontColor=default;labelBackgroundColor=default;endArrow=classic;" parent="1" source="7ggBEAi3PEVED5c9oeLr-2" target="7ggBEAi3PEVED5c9oeLr-24" edge="1">
          <mxGeometry relative="1" as="geometry" />
        </mxCell>
        <mxCell id="7ggBEAi3PEVED5c9oeLr-26" value="Retrieve LLM API key&lt;br&gt;if user is allowed" style="edgeLabel;html=1;align=center;verticalAlign=middle;resizable=0;points=[];fontFamily=Helvetica;fontSize=11;fontColor=default;labelBackgroundColor=default;" parent="7ggBEAi3PEVED5c9oeLr-25" vertex="1" connectable="0">
          <mxGeometry x="0.1102" y="2" relative="1" as="geometry">
            <mxPoint x="18" y="-15" as="offset" />
          </mxGeometry>
        </mxCell>
      </root>
    </mxGraphModel>
  </diagram>
</mxfile>
